<?xml version="1.0" encoding="utf-8"?>
<!-- Generator: Adobe Illustrator 18.1.0, SVG Export Plug-In . SVG Version: 6.00 Build 0)  -->
<!DOCTYPE svg PUBLIC "-//W3C//DTD SVG 1.1//EN" "http://www.w3.org/Graphics/SVG/1.1/DTD/svg11.dtd">
<svg version="1.1" id="Layer_1" xmlns="http://www.w3.org/2000/svg" xmlns:xlink="http://www.w3.org/1999/xlink" x="0px" y="0px"
	 viewBox="225 84 394 95" enable-background="new 225 84 394 95" xml:space="preserve">
<g>
	<g>
		<path fill="#E7F1F7" d="M374.8,144c0,0,4.4,4.4,11.8,4.4c3.4,0,7.3-1.6,7.3-4.7c0-5.6-18.6-5.5-18.6-18.4c0-8.7,8.7-14,17.5-14
			c10.1,0,15.3,5,15.3,5l-5,7.5c0,0-3.5-3.5-10.4-3.5c-3.2,0-7.3,1.3-7.3,4.8c0,5.4,18.7,5.4,18.7,18.6c0,8.2-7.5,13.8-17.6,13.8
			c-11,0-17.5-6.5-17.5-6.5L374.8,144z"/>
		<path fill="#E7F1F7" d="M428.9,148.2c7.9,0,16-7,16-16.8c0-6.5-4.4-10.9-10.6-10.9c-7.9,0-16.1,7.1-16.1,16.8
			C418.1,144,422.7,148.2,428.9,148.2 M434.4,111.2c12.8,0,21.8,7.9,21.8,19.5c0,15.6-13.7,26.8-27.4,26.8
			c-12.6,0-21.6-7.8-21.6-19.6C407.1,122.6,420.5,111.2,434.4,111.2"/>
		<path fill="#E7F1F7" d="M458.4,142l9.1-47.1h11l-8.7,45.4c-0.3,1.2-0.5,2.8-0.5,3.5c0,2.8,1.9,3.4,3.8,3.4c0.8,0,1.6-0.1,1.6-0.1
			l-1.9,9.7c0,0-1.6,0.3-3.1,0.3c-5.9,0-11.6-2.3-11.6-10.5C458,145.2,458.2,143.7,458.4,142"/>
		<path fill="#E7F1F7" d="M485.3,112.3h10.6l-0.8,4c-0.4,2.2-1.1,4.3-1.1,4.3h0.1c2.4-4.2,9.1-9.4,16.8-9.4
			c7.8,0,13.3,3.5,13.3,12.1c0,1.6-0.4,3.8-0.8,5.8l-5.2,27.6h-11l5-25.8c0.3-1.5,0.5-3,0.5-4c0-3.8-2-5.4-5.5-5.4
			c-7.7,0-14.3,7.3-15.7,15.3l-3.8,19.9h-11L485.3,112.3z"/>
		<path fill="#E7F1F7" d="M558.9,128.9c0,0,0.1-0.9,0.1-1.9c0-4.6-2.8-7.3-7-7.3c-5.6,0-10.2,3.8-12.4,9.1H558.9z M552.3,111.2
			c11.8,0,17.7,7,17.7,16.8c0,3.8-1.6,8.5-1.6,8.5h-30.5c-0.1,0.7-0.1,1.1-0.1,1.6c0,5.6,3.8,10.1,10.9,10.1s13.7-4.8,13.7-4.8
			l3,8.5c0,0-7.5,5.8-17.2,5.8c-13.8,0-21.5-8.3-21.5-19C526.6,123.6,537.5,111.2,552.3,111.2"/>
		<path fill="#E7F1F7" d="M574.7,139.3l3.5-17.7h-5.6l1.6-8.7h6.1l2.6-12.6h10.6l-2.6,12.6h10.2l-1.6,8.7h-10.2l-3.1,16.1
			c-0.3,1.3-0.4,2.8-0.4,3.5c0,5,3.6,5.9,7,5.9c1.3,0,2.4-0.1,2.4-0.1l-1.9,9.7c0,0-1.6,0.3-3.2,0.3c-7.9,0-15.7-3.1-15.7-13.4
			C574.2,142.2,574.5,140.8,574.7,139.3"/>
		<path fill="#E7F1F7" d="M320.4,152.3c-3.5,1.2-7.3,1.6-10.9,1.6c-4.8,0-9.4-0.9-12.5-2.4c-8.3-3.9-14.3-12-14.7-20
			c-0.3-5.4,1.6-12.9,11.6-19.8c-5.5-0.9-12.4-0.4-18.2,2.3c-5.6,2.7-9.3,7.1-10.8,13.2c-2,8.3,0.3,17.2,6.5,25
			c6.6,8.5,16.5,14.5,27.8,17.2c3.6,0.8,7.4,1.2,11.3,1.2c9,0,17.3-2.2,24.5-5.8L320.4,152.3z"/>
		<path fill="#E7F1F7" d="M310.5,91.6c-1.3,0-2.8,0.1-4.2,0.1c9.1,3.4,17.2,9,22.9,16.1c6.9,8.6,9.4,18.6,7.1,27.8
			c-1.7,6.9-6.1,12.2-12.5,15.3h-0.1l14.3,12.1c11.8-7.1,19.6-18.8,19.6-32.1C357.6,109.3,336.5,91.6,310.5,91.6"/>
		<path fill="#E7F1F7" d="M333.3,134.8c2-8.3-0.3-17.2-6.5-25.1c-6.7-8.2-16.8-14.3-28.2-16.9c-3.6-0.8-7.4-1.2-11.3-1.2
			c-9.4,0-18.2,2.3-25.4,6.3l14.7,12.5c8.6-3.2,19-2.4,24.7,0.3c8.5,3.9,14.3,12,14.7,20c0.3,5.4-1.6,12.9-11.6,19.8
			c5.5,0.9,12.4,0.4,18.2-2.3C328.2,145.3,331.8,140.9,333.3,134.8"/>
		<path fill="#E7F1F7" d="M268.9,154.3c-6.9-8.6-9.4-18.6-7.1-27.8c1.6-6.6,5.5-11.6,11.4-14.8l-14.3-12.1
			c-11.3,7.3-18.7,18.7-18.7,31.5c0,21.8,21.1,39.5,47.1,39.5c1.5,0,2.8-0.1,4.3-0.1C282.4,167,274.5,161.5,268.9,154.3"/>
	</g>
</g>
</svg>
